<svg width="506" height="469" viewBox="0 0 506 469" fill="none" xmlns="http://www.w3.org/2000/svg">
<path d="M326.641 214.76C330.617 215.064 334.191 213.659 337.768 212.415C338.403 216.33 337.031 220.279 334.516 221.406C326.166 225.147 310.434 222.223 304.352 208.973C303.582 207.296 302.776 206.795 301.296 207.158C281.195 212.089 260.912 213.138 240.577 212.142C228.834 211.567 217.12 210.086 205.528 207.17C204.437 206.895 203.667 206.953 203.004 208.399C198.276 218.709 190.857 221.644 182.857 222.76C179.912 223.171 176.937 222.96 174.013 222.082C170.672 221.078 168.858 217.674 169.136 212.693C170.548 212.452 171.833 213.373 173.164 213.756C179.972 215.713 186.581 215.206 192.858 210.645C196.782 207.793 199.316 203.485 199.5 197.014C199.586 193.993 200.987 193.937 202.553 193.753C204.19 193.56 205.34 193.872 205.247 196.731C205.182 198.761 206.24 199.112 207.366 199.385C215.8 201.43 224.305 202.716 232.832 203.462C240.874 204.166 248.939 204.484 257.009 204.306C271.331 203.991 285.585 202.651 299.74 199.43C301.137 199.111 301.787 198.343 301.81 196.34C301.841 193.564 303.285 193.71 304.635 193.827C305.92 193.939 307.402 193.645 307.501 196.445C307.798 204.784 311.421 209.372 316.531 212.189C319.697 213.935 322.975 214.968 326.641 214.76Z" fill="black"/>
<path d="M295.588 164.279C287.598 166.916 279.656 167.981 271.718 169.029C265.237 169.884 258.732 169.846 252.228 169.841C237.957 169.831 223.809 168.163 209.863 163.739C208.293 163.241 207.485 164.069 206.586 165.734C201.812 174.579 195.192 178.019 187.571 177.971C183.769 177.948 182.259 175.481 181.986 169.888C182.841 169.075 183.72 169.601 184.602 169.784C189.056 170.71 193.295 169.74 197.277 166.758C200.839 164.092 203.095 160.046 203.754 154.327C203.917 152.918 203.83 150.983 205.454 151.298C206.852 151.569 208.8 150.246 209.321 153.487C209.619 155.336 210.572 155.733 211.654 156.079C219.61 158.625 227.686 160.01 235.8 160.98C244.506 162.022 253.236 162.023 261.958 161.669C273.238 161.211 284.425 159.478 295.458 156.026C296.48 155.707 297.454 155.415 297.844 153.519C298.471 150.47 300.525 151.421 302.019 151.219C303.65 151 303.374 153.16 303.474 154.52C303.933 160.778 306.724 164.528 310.379 167.195C314.142 169.941 318.199 170.645 322.386 169.798C323.269 169.62 324.15 169.129 325.011 169.878C324.97 174.81 323.477 177.681 320.237 177.862C312.725 178.28 305.971 175.34 301.134 166.783C299.516 163.921 298.112 162.861 295.588 164.279Z" fill="black"/>
<path d="M305.722 322.992C305.721 294.193 305.718 265.727 305.725 237.262C305.726 232.876 307.207 231.398 310.233 232.559C311.255 232.951 311.472 233.858 311.464 235.136C311.45 237.692 311.461 240.248 311.461 242.804C311.464 269.527 311.473 296.25 311.447 322.973C311.446 324.36 311.94 326.23 310.555 326.905C309.212 327.56 307.754 327.564 306.446 326.761C305.418 326.13 305.828 324.54 305.722 322.992Z" fill="black"/>
<path d="M195.548 324.217C195.539 295.092 195.535 266.282 195.538 237.472C195.538 233.367 197.863 231.232 200.497 232.837C201.299 233.325 201.246 234.262 201.257 235.162C201.287 237.601 201.281 240.041 201.281 242.48C201.281 269.431 201.286 296.382 201.26 323.333C201.259 324.804 201.693 327.161 199.861 326.857C198.368 326.609 196.011 328.792 195.548 324.217Z" fill="black"/>
</svg>
